# xmcd CD database file
#
# Track frame offsets:
#	150
#	32852
#	59239
#	110352
#	133185
#	156136
#	200326
#	238061
#	287539
#
# Disc length: 4158 seconds
#
# Revision: 0
# Processed by: cddbd v1.5.1PL0 Copyright (c) Steve Scherf et al.
# Submitted via: CDex 1.51
#
DISCID=85103c09
DTITLE=Sampler - It`s blues time
DYEAR=2003
DGENRE=Blues
TTITLE0=Scott Henderson-Lady P
TTITLE1=Walter Trout-Walking in the rain
TTITLE2=Walter Trout-The season I´m gone
TTITLE3=Walter Trout-Livin` every day
TTITLE4=Walter Trout-Le me know
TTITLE5=Walter Trout-Finally gotten over you
TTITLE6=Walter Trout-Gotta broken heart
TTITLE7=Walter Trout-Serve me right to suffer
TTITLE8=Walter Trout-Good enough to eat 
EXTD=YEAR: 2003
EXTT0=
EXTT1=
EXTT2=
EXTT3=
EXTT4=
EXTT5=
EXTT6=
EXTT7=
EXTT8=
PLAYORDER=
